<svg xmlns="http://www.w3.org/2000/svg" xmlns:xlink="http://www.w3.org/1999/xlink" width="280" zoomAndPan="magnify" viewBox="0 0 210 60" height="80" preserveAspectRatio="xMidYMid meet" version="1.0"><defs><g/></defs><path fill="#ffffff" d="M 70.089844 50.191406 C 72.191406 47.15625 74.859375 44.816406 78.976562 44.261719 C 86.957031 43.183594 89.703125 53.078125 75.511719 57.214844 C 91.992188 55.140625 87.972656 41.28125 78.660156 42.910156 C 74.1875 43.691406 71.59375 46.386719 70.089844 50.191406 " fill-opacity="1" fill-rule="nonzero"/><path fill="#ffffff" d="M 71.507812 45.449219 C 68.042969 38.75 58.027344 48.265625 54.988281 51.410156 C 53.816406 52.621094 50.394531 57.3125 54.441406 56.011719 C 60.03125 54.214844 64.699219 51.304688 72.121094 56.496094 C 64.535156 53.390625 59.328125 55.859375 54.917969 57.414062 C 48.292969 59.746094 51.574219 53.035156 54.144531 50.296875 C 57.042969 47.203125 69.75 36.605469 71.507812 45.449219 " fill-opacity="1" fill-rule="nonzero"/><path fill="#ffffff" d="M 59.511719 43.660156 C 53.570312 47.996094 46.410156 49.574219 39.929688 46.71875 C 27.507812 41.242188 28.257812 44.75 17.917969 49.460938 C 12.039062 52.136719 6.054688 52.683594 0 51.792969 C 6.039062 51.917969 11.886719 50.9375 17.429688 48.195312 C 27.976562 42.96875 27.46875 39.785156 40.300781 45.34375 C 47.113281 48.289062 52.074219 46.820312 59.511719 43.660156 " fill-opacity="1" fill-rule="nonzero"/><path fill="#ffffff" d="M 39.363281 27.734375 C 39.707031 24.277344 40.585938 22.035156 43.269531 20.3125 C 45.757812 18.714844 48.128906 18.097656 49.175781 15.277344 C 50.339844 12.144531 50.410156 8.707031 53.148438 6.945312 C 58.691406 3.375 63.445312 9.476562 61.796875 13.90625 C 60.714844 16.8125 54.703125 22.859375 51.082031 19.375 C 54.121094 24.742188 61.574219 17.289062 62.742188 14.128906 C 64.785156 8.597656 59.398438 1.425781 52.496094 5.832031 C 49.28125 7.886719 49.214844 11.351562 47.726562 15.03125 C 46.757812 17.417969 44.8125 17.875 42.449219 19.261719 C 39.320312 21.097656 38.117188 23.699219 37.753906 27.46875 C 36.597656 39.496094 33.0625 35.804688 29.003906 42.148438 C 35.117188 36.867188 38.257812 38.839844 39.363281 27.734375 " fill-opacity="1" fill-rule="nonzero"/><path fill="#ffffff" d="M 52.859375 24.300781 C 56.921875 27.941406 53.605469 36.859375 61.417969 42.210938 C 54.523438 34.058594 58.8125 28.796875 52.859375 24.300781 " fill-opacity="1" fill-rule="nonzero"/><path fill="#ffffff" d="M 46.429688 26.398438 C 48.996094 29.550781 49 31.734375 50.566406 34.851562 C 51.976562 37.660156 55.648438 41.113281 57.640625 43.128906 C 56.308594 41.425781 52.996094 37.089844 51.644531 34.519531 C 49.972656 31.347656 50.0625 28.679688 46.429688 26.398438 " fill-opacity="1" fill-rule="nonzero"/><path fill="#ffffff" d="M 43.460938 33.671875 C 44.699219 38.007812 49.371094 41.332031 54.082031 44.792969 C 49.773438 42.5625 43.285156 39.453125 43.460938 33.671875 " fill-opacity="1" fill-rule="nonzero"/><path fill="#ffffff" d="M 51.953125 5.703125 C 50.421875 0.847656 56.410156 0.0117188 55.824219 4.207031 C 54.710938 1.492188 51.902344 2.46875 51.953125 5.703125 " fill-opacity="1" fill-rule="nonzero"/><g fill="#ffffff" fill-opacity="1"><g transform="translate(91.991255, 36.686876)"><g><path d="M 22.703125 -0.25 L 23.09375 -0.25 L 23.09375 0 L 17.625 0 L 17.625 -0.234375 L 18 -0.234375 C 18.289062 -0.234375 18.535156 -0.34375 18.734375 -0.5625 C 18.941406 -0.789062 19.023438 -1.039062 18.984375 -1.3125 L 17.859375 -14 L 12.5625 -2.21875 C 12.09375 -1.195312 11.804688 -0.335938 11.703125 0.359375 L 11.453125 0.359375 L 5 -13.640625 L 3.90625 -1.3125 C 3.875 -1.039062 3.957031 -0.789062 4.15625 -0.5625 C 4.363281 -0.34375 4.601562 -0.234375 4.875 -0.234375 L 5.265625 -0.234375 L 5.265625 0 L 0.375 0 L 0.375 -0.25 L 0.78125 -0.25 C 1.25 -0.25 1.65625 -0.390625 2 -0.671875 C 2.34375 -0.960938 2.550781 -1.351562 2.625 -1.84375 L 4.515625 -18 L 4.765625 -18 L 11.796875 -2.796875 L 18.6875 -18 L 18.90625 -18 L 20.859375 -1.84375 C 20.941406 -1.164062 21.273438 -0.691406 21.859375 -0.421875 C 22.117188 -0.304688 22.398438 -0.25 22.703125 -0.25 Z M 22.703125 -0.25 "/></g></g></g><g fill="#ffffff" fill-opacity="1"><g transform="translate(115.465562, 36.686876)"><g><path d="M 18.0625 -0.25 L 18.265625 -0.25 L 18.265625 0 L 12.59375 0 L 12.59375 -0.25 L 12.8125 -0.25 C 13.164062 -0.25 13.429688 -0.363281 13.609375 -0.59375 C 13.785156 -0.820312 13.875 -1.035156 13.875 -1.234375 C 13.875 -1.429688 13.84375 -1.632812 13.78125 -1.84375 L 12.15625 -6.125 L 5.359375 -6.125 L 3.65625 -1.8125 C 3.59375 -1.613281 3.5625 -1.414062 3.5625 -1.21875 C 3.5625 -1.03125 3.648438 -0.820312 3.828125 -0.59375 C 4.003906 -0.363281 4.269531 -0.25 4.625 -0.25 L 4.84375 -0.25 L 4.84375 0 L -0.21875 0 L -0.21875 -0.25 L 0 -0.25 C 0.425781 -0.25 0.835938 -0.382812 1.234375 -0.65625 C 1.640625 -0.925781 1.96875 -1.320312 2.21875 -1.84375 L 7.921875 -15.40625 C 8.546875 -16.769531 8.859375 -17.632812 8.859375 -18 L 9.078125 -18 L 15.84375 -1.84375 C 16.082031 -1.320312 16.398438 -0.925781 16.796875 -0.65625 C 17.203125 -0.382812 17.625 -0.25 18.0625 -0.25 Z M 5.65625 -6.890625 L 11.859375 -6.890625 L 8.828125 -14.984375 Z M 5.65625 -6.890625 "/></g></g></g><g fill="#ffffff" fill-opacity="1"><g transform="translate(133.417989, 36.686876)"><g><path d="M 1.53125 -1.03125 C 1.488281 -1.269531 1.46875 -1.722656 1.46875 -2.390625 C 1.46875 -3.066406 1.59375 -3.785156 1.84375 -4.546875 L 2.0625 -4.546875 C 2.050781 -4.359375 2.046875 -4.171875 2.046875 -3.984375 C 2.046875 -2.960938 2.351562 -2.109375 2.96875 -1.421875 C 3.59375 -0.742188 4.421875 -0.40625 5.453125 -0.40625 C 6.503906 -0.40625 7.367188 -0.722656 8.046875 -1.359375 C 8.734375 -1.992188 9.078125 -2.796875 9.078125 -3.765625 C 9.078125 -4.734375 8.75 -5.519531 8.09375 -6.125 L 3.25 -10.609375 C 2.34375 -11.453125 1.890625 -12.46875 1.890625 -13.65625 C 1.890625 -14.851562 2.285156 -15.875 3.078125 -16.71875 C 3.878906 -17.570312 4.960938 -18 6.328125 -18 C 6.960938 -18 7.6875 -17.914062 8.5 -17.75 L 9.484375 -17.75 L 9.484375 -14.65625 L 9.25 -14.65625 C 9.25 -15.445312 8.972656 -16.078125 8.421875 -16.546875 C 7.878906 -17.015625 7.179688 -17.25 6.328125 -17.25 C 5.472656 -17.25 4.753906 -16.960938 4.171875 -16.390625 C 3.585938 -15.816406 3.296875 -15.101562 3.296875 -14.25 C 3.296875 -13.394531 3.632812 -12.65625 4.3125 -12.03125 L 9.28125 -7.4375 C 10.125 -6.664062 10.546875 -5.609375 10.546875 -4.265625 C 10.546875 -2.921875 10.113281 -1.8125 9.25 -0.9375 C 8.394531 -0.0703125 7.253906 0.359375 5.828125 0.359375 C 5.085938 0.359375 4.300781 0.242188 3.46875 0.015625 C 2.632812 -0.210938 1.988281 -0.5625 1.53125 -1.03125 Z M 1.53125 -1.03125 "/></g></g></g><g fill="#ffffff" fill-opacity="1"><g transform="translate(145.394673, 36.686876)"><g><path d="M 1.53125 -1.03125 C 1.488281 -1.269531 1.46875 -1.722656 1.46875 -2.390625 C 1.46875 -3.066406 1.59375 -3.785156 1.84375 -4.546875 L 2.0625 -4.546875 C 2.050781 -4.359375 2.046875 -4.171875 2.046875 -3.984375 C 2.046875 -2.960938 2.351562 -2.109375 2.96875 -1.421875 C 3.59375 -0.742188 4.421875 -0.40625 5.453125 -0.40625 C 6.503906 -0.40625 7.367188 -0.722656 8.046875 -1.359375 C 8.734375 -1.992188 9.078125 -2.796875 9.078125 -3.765625 C 9.078125 -4.734375 8.75 -5.519531 8.09375 -6.125 L 3.25 -10.609375 C 2.34375 -11.453125 1.890625 -12.46875 1.890625 -13.65625 C 1.890625 -14.851562 2.285156 -15.875 3.078125 -16.71875 C 3.878906 -17.570312 4.960938 -18 6.328125 -18 C 6.960938 -18 7.6875 -17.914062 8.5 -17.75 L 9.484375 -17.75 L 9.484375 -14.65625 L 9.25 -14.65625 C 9.25 -15.445312 8.972656 -16.078125 8.421875 -16.546875 C 7.878906 -17.015625 7.179688 -17.25 6.328125 -17.25 C 5.472656 -17.25 4.753906 -16.960938 4.171875 -16.390625 C 3.585938 -15.816406 3.296875 -15.101562 3.296875 -14.25 C 3.296875 -13.394531 3.632812 -12.65625 4.3125 -12.03125 L 9.28125 -7.4375 C 10.125 -6.664062 10.546875 -5.609375 10.546875 -4.265625 C 10.546875 -2.921875 10.113281 -1.8125 9.25 -0.9375 C 8.394531 -0.0703125 7.253906 0.359375 5.828125 0.359375 C 5.085938 0.359375 4.300781 0.242188 3.46875 0.015625 C 2.632812 -0.210938 1.988281 -0.5625 1.53125 -1.03125 Z M 1.53125 -1.03125 "/></g></g></g><g fill="#ffffff" fill-opacity="1"><g transform="translate(157.371358, 36.686876)"><g><path d="M 18.0625 -0.25 L 18.265625 -0.25 L 18.265625 0 L 12.59375 0 L 12.59375 -0.25 L 12.8125 -0.25 C 13.164062 -0.25 13.429688 -0.363281 13.609375 -0.59375 C 13.785156 -0.820312 13.875 -1.035156 13.875 -1.234375 C 13.875 -1.429688 13.84375 -1.632812 13.78125 -1.84375 L 12.15625 -6.125 L 5.359375 -6.125 L 3.65625 -1.8125 C 3.59375 -1.613281 3.5625 -1.414062 3.5625 -1.21875 C 3.5625 -1.03125 3.648438 -0.820312 3.828125 -0.59375 C 4.003906 -0.363281 4.269531 -0.25 4.625 -0.25 L 4.84375 -0.25 L 4.84375 0 L -0.21875 0 L -0.21875 -0.25 L 0 -0.25 C 0.425781 -0.25 0.835938 -0.382812 1.234375 -0.65625 C 1.640625 -0.925781 1.96875 -1.320312 2.21875 -1.84375 L 7.921875 -15.40625 C 8.546875 -16.769531 8.859375 -17.632812 8.859375 -18 L 9.078125 -18 L 15.84375 -1.84375 C 16.082031 -1.320312 16.398438 -0.925781 16.796875 -0.65625 C 17.203125 -0.382812 17.625 -0.25 18.0625 -0.25 Z M 5.65625 -6.890625 L 11.859375 -6.890625 L 8.828125 -14.984375 Z M 5.65625 -6.890625 "/></g></g></g><g fill="#ffffff" fill-opacity="1"><g transform="translate(175.323784, 36.686876)"><g><path d="M 10.5625 0.359375 C 7.875 0.335938 5.691406 -0.507812 4.015625 -2.1875 C 2.347656 -3.875 1.515625 -6.085938 1.515625 -8.828125 C 1.515625 -11.566406 2.347656 -13.78125 4.015625 -15.46875 C 5.691406 -17.15625 7.875 -18 10.5625 -18 C 12.882812 -18 14.925781 -17.429688 16.6875 -16.296875 L 17.203125 -12.734375 L 16.96875 -12.734375 C 16.601562 -14.179688 15.859375 -15.296875 14.734375 -16.078125 C 13.617188 -16.859375 12.226562 -17.25 10.5625 -17.25 C 8.425781 -17.25 6.695312 -16.472656 5.375 -14.921875 C 4.0625 -13.378906 3.40625 -11.347656 3.40625 -8.828125 C 3.40625 -6.304688 4.0625 -4.273438 5.375 -2.734375 C 6.695312 -1.191406 8.425781 -0.414062 10.5625 -0.40625 C 11.65625 -0.40625 12.691406 -0.597656 13.671875 -0.984375 C 14.660156 -1.367188 15.523438 -1.90625 16.265625 -2.59375 L 16.265625 -7.0625 C 16.265625 -7.425781 16.148438 -7.707031 15.921875 -7.90625 C 15.691406 -8.101562 15.378906 -8.203125 14.984375 -8.203125 L 14.578125 -8.203125 L 14.578125 -8.453125 L 19.515625 -8.453125 L 19.515625 -8.203125 L 19.140625 -8.203125 C 18.722656 -8.203125 18.40625 -8.101562 18.1875 -7.90625 C 17.96875 -7.707031 17.863281 -7.425781 17.875 -7.0625 L 17.875 -2.90625 C 17.4375 -2.332031 16.914062 -1.816406 16.3125 -1.359375 C 15.707031 -0.910156 14.894531 -0.507812 13.875 -0.15625 C 12.863281 0.1875 11.757812 0.359375 10.5625 0.359375 Z M 10.5625 0.359375 "/></g></g></g><g fill="#ffffff" fill-opacity="1"><g transform="translate(195.44462, 36.686876)"><g><path d="M 1.84375 -0.25 C 2.28125 -0.25 2.65625 -0.40625 2.96875 -0.71875 C 3.28125 -1.03125 3.441406 -1.40625 3.453125 -1.84375 L 3.453125 -15.96875 C 3.398438 -16.363281 3.222656 -16.703125 2.921875 -16.984375 C 2.617188 -17.265625 2.257812 -17.40625 1.84375 -17.40625 L 1.53125 -17.40625 L 1.515625 -17.65625 L 8.90625 -17.65625 C 9.425781 -17.65625 9.992188 -17.703125 10.609375 -17.796875 C 11.222656 -17.898438 11.65625 -18.003906 11.90625 -18.109375 L 11.90625 -14.921875 L 11.65625 -14.921875 L 11.65625 -15.390625 C 11.65625 -15.785156 11.515625 -16.125 11.234375 -16.40625 C 10.953125 -16.695312 10.617188 -16.851562 10.234375 -16.875 L 5.09375 -16.875 L 5.09375 -9.078125 L 9.359375 -9.078125 C 9.691406 -9.097656 9.972656 -9.222656 10.203125 -9.453125 C 10.441406 -9.691406 10.5625 -9.988281 10.5625 -10.34375 L 10.5625 -10.6875 L 10.8125 -10.6875 L 10.8125 -6.703125 L 10.5625 -6.703125 L 10.5625 -7.09375 C 10.5625 -7.425781 10.445312 -7.707031 10.21875 -7.9375 C 10 -8.175781 9.71875 -8.304688 9.375 -8.328125 L 5.09375 -8.328125 L 5.09375 -0.78125 L 8.703125 -0.78125 C 9.941406 -0.78125 10.890625 -1.054688 11.546875 -1.609375 C 12.203125 -2.171875 12.75 -2.992188 13.1875 -4.078125 L 13.4375 -4.078125 L 11.984375 0 L 1.515625 0 L 1.515625 -0.25 Z M 1.84375 -0.25 "/></g></g></g></svg>